<?xml version="1.0" encoding="iso-8859-1"?>
<!-- Generator: Adobe Illustrator 21.0.0, SVG Export Plug-In . SVG Version: 6.00 Build 0)  -->
<svg version="1.1" id="Capa_1" xmlns="http://www.w3.org/2000/svg" xmlns:xlink="http://www.w3.org/1999/xlink" x="0px" y="0px"
	 viewBox="0 0 511.999 511.999" style="enable-background:new 0 0 511.999 511.999;" xml:space="preserve">
<linearGradient id="SVGID_1_" gradientUnits="userSpaceOnUse" x1="147.6182" y1="331.8915" x2="471.9382" y2="7.5715" gradientTransform="matrix(1.0039 0 0 -1.0039 0.1922 516.5593)">
	<stop  offset="0" style="stop-color:#F2F2F2"/>
	<stop  offset="1" style="stop-color:#C3C3C3"/>
</linearGradient>
<path style="fill:url(#SVGID_1_);" d="M342.348,448.791L342.348,448.791c-6.066-2.091-12.721-1.632-18.443,1.269l-13.804,7.001
	c-14.308,7.256-31.218,7.257-45.526,0.001l0,0c-14.307-7.255-31.216-7.255-45.523,0l-0.003,0.001
	c-14.307,7.255-31.215,7.255-45.522,0l-0.005-0.003c-14.307-7.254-31.215-7.254-45.522,0l-0.006,0.003
	c-14.306,7.254-31.213,7.255-45.52,0.001l-13.821-7.007c-5.721-2.901-12.375-3.359-18.44-1.268l-0.207,0.071
	c-18.465,6.365-36.27-11.085-30.279-29.675l3.332-10.339c1.714-5.318,1.494-11.069-0.621-16.24l-12.021-29.395
	c-4.994-12.21-4.993-25.891,0-38.1l7.504-18.349c4.994-12.21,4.994-25.891,0-38.101l-7.504-18.35c-4.994-12.209-4.994-25.89,0-38.1
	l7.505-18.353c4.993-12.209,4.993-25.89,0-38.1l-7.505-18.353c-4.993-12.209-4.994-25.889-0.001-38.098l12.023-29.403
	c2.114-5.17,2.334-10.922,0.62-16.239l-3.335-10.347C13.736,24.731,31.542,7.282,50.007,13.646l0.199,0.068
	c6.066,2.091,12.721,1.632,18.443-1.269l13.804-7.001c14.308-7.256,31.218-7.257,45.526-0.001l0,0
	c14.307,7.255,31.216,7.255,45.523,0l0.003-0.001c14.307-7.255,31.215-7.255,45.522,0l0.005,0.003
	c14.307,7.254,31.215,7.254,45.522,0l0.006-0.003c14.306-7.254,31.213-7.255,45.52-0.001l13.625,6.909
	c5.847,2.965,12.644,3.432,18.842,1.296l0,0c18.465-6.364,36.271,11.085,30.279,29.675l-3.332,10.339
	c-1.714,5.318-1.494,11.069,0.621,16.24l12.021,29.395c4.993,12.21,4.992,25.891,0,38.1l-7.504,18.349
	c-4.993,12.21-4.993,25.891,0,38.101l7.504,18.35c4.993,12.209,4.993,25.89,0,38.1l-7.505,18.353c-4.992,12.209-4.992,25.89,0,38.1
	l7.57,18.508c4.955,12.115,4.995,25.685,0.109,37.83l-12.221,30.385c-2.078,5.166-2.27,10.899-0.544,16.192l3.058,9.377
	C378.67,437.642,360.849,455.168,342.348,448.791z"/>
<linearGradient id="SVGID_2_" gradientUnits="userSpaceOnUse" x1="155.8587" y1="323.652" x2="424.5387" y2="54.972" gradientTransform="matrix(1.0039 0 0 -1.0039 0.1922 516.5593)">
	<stop  offset="0" style="stop-color:#62E1FB"/>
	<stop  offset="1" style="stop-color:#00A2F3"/>
</linearGradient>
<path style="fill:url(#SVGID_2_);" d="M315.122,419.251H77.431c-13.471,0-24.39-10.92-24.39-24.39V67.644
	c0-13.471,10.92-24.39,24.39-24.39h237.691c13.471,0,24.39,10.92,24.39,24.39v327.217
	C339.512,408.331,328.592,419.251,315.122,419.251z"/>
<linearGradient id="SVGID_3_" gradientUnits="userSpaceOnUse" x1="317.2975" y1="227.6607" x2="111.0975" y2="433.8607" gradientTransform="matrix(1.0039 0 0 -1.0039 0.1922 516.5593)">
	<stop  offset="0" style="stop-color:#00A2F3;stop-opacity:0"/>
	<stop  offset="1" style="stop-color:#0075CD"/>
</linearGradient>
<path style="fill:url(#SVGID_3_);" d="M339.517,225.665v145.502c0,5.807-2.032,11.139-5.425,15.318L156.44,208.835
	c-11.671-10.758-19-26.168-19-43.287c0-32.494,26.342-58.836,58.836-58.836c17.119,0,32.529,7.33,43.287,19L339.517,225.665z"/>
<linearGradient id="SVGID_4_" gradientUnits="userSpaceOnUse" x1="236.1617" y1="140.1028" x2="193.8317" y2="357.7928" gradientTransform="matrix(1.0039 0 0 -1.0039 0.1922 516.5593)">
	<stop  offset="0" style="stop-color:#00A2F3;stop-opacity:0"/>
	<stop  offset="1" style="stop-color:#0075CD"/>
</linearGradient>
<path style="fill:url(#SVGID_4_);" d="M339.517,342.367v28.801c0,5.807-2.032,11.139-5.425,15.318
	c-4.467,5.53-11.301,9.061-18.965,9.061H209.205L113.8,300.199c7.434-33.522,34.768-59.54,68.982-65.023
	c4.398-0.704,8.9-1.073,13.494-1.073c23.34,0,44.453,9.465,59.747,24.749L339.517,342.367z"/>
<linearGradient id="SVGID_5_" gradientUnits="userSpaceOnUse" x1="195.319" y1="376.6522" x2="195.319" y2="274.9822" gradientTransform="matrix(1.0039 0 0 -1.0039 0.1922 516.5593)">
	<stop  offset="0" style="stop-color:#FFFFFF"/>
	<stop  offset="1" style="stop-color:#E2EDF2"/>
</linearGradient>
<circle style="fill:url(#SVGID_5_);" cx="196.277" cy="165.546" r="58.83"/>
<linearGradient id="SVGID_6_" gradientUnits="userSpaceOnUse" x1="195.318" y1="254.3522" x2="195.318" y2="167.4522" gradientTransform="matrix(1.0039 0 0 -1.0039 0.1922 516.5593)">
	<stop  offset="0" style="stop-color:#FFFFFF"/>
	<stop  offset="1" style="stop-color:#E2EDF2"/>
</linearGradient>
<path style="fill:url(#SVGID_6_);" d="M278.758,300.194c-21.007,21.292-50.207,34.477-82.482,34.477s-61.475-13.185-82.482-34.477
	c8.394-37.824,42.128-66.094,82.482-66.094c23.337,0,44.459,9.466,59.745,24.753C267.175,269.993,275.226,284.25,278.758,300.194z"
	/>
<linearGradient id="SVGID_7_" gradientUnits="userSpaceOnUse" x1="380.5125" y1="298.7622" x2="380.5125" y2="201.5722" gradientTransform="matrix(1.0039 0 0 -1.0039 0.1922 516.5593)">
	<stop  offset="0" style="stop-color:#C3C3C3"/>
	<stop  offset="1" style="stop-color:#777777"/>
</linearGradient>
<path style="fill:url(#SVGID_7_);" d="M486.867,344.674H277.526v-53.815c0-57.715,46.954-104.67,104.67-104.67
	c57.715,0,104.67,46.954,104.67,104.67v53.815H486.867z M312.157,310.044h140.08v-19.186c0-38.62-31.42-70.04-70.04-70.04
	c-38.621,0-70.041,31.42-70.041,70.04V310.044z"/>
<linearGradient id="SVGID_8_" gradientUnits="userSpaceOnUse" x1="376.64" y1="115.3325" x2="400.85" y2="14.2025" gradientTransform="matrix(1.0039 0 0 -1.0039 0.1922 516.5593)">
	<stop  offset="0" style="stop-color:#FFF465"/>
	<stop  offset="1" style="stop-color:#FFE600"/>
</linearGradient>
<path style="fill:url(#SVGID_8_);" d="M476.283,511.999H286.509c-11.384,0-20.614-9.229-20.614-20.613V335.95
	c0-11.384,9.229-20.614,20.614-20.614h189.774c11.384,0,20.614,9.229,20.614,20.614v155.436
	C496.896,502.77,487.667,511.999,476.283,511.999z"/>
<g>
	<rect x="265.899" y="383.668" style="fill:#FFE600;" width="231.002" height="15.059"/>
	<rect x="265.899" y="414.167" style="fill:#FFE600;" width="231.002" height="15.059"/>
	<rect x="265.899" y="444.656" style="fill:#FFE600;" width="231.002" height="15.059"/>
	<rect x="265.899" y="475.155" style="fill:#FFE600;" width="231.002" height="15.059"/>
</g>
<linearGradient id="SVGID_9_" gradientUnits="userSpaceOnUse" x1="400.0088" y1="59.2122" x2="370.8188" y2="213.5122" gradientTransform="matrix(1.0039 0 0 -1.0039 0.1922 516.5593)">
	<stop  offset="0" style="stop-color:#FFE600;stop-opacity:0"/>
	<stop  offset="1" style="stop-color:#F59500"/>
</linearGradient>
<path style="fill:url(#SVGID_9_);" d="M413.057,511.999h63.226c11.384,0,20.614-9.229,20.614-20.613V335.95
	c0-11.384-9.229-20.614-20.614-20.614H286.509c-11.384,0-20.614,9.229-20.614,20.614v28.888L413.057,511.999z"/>
<linearGradient id="SVGID_10_" gradientUnits="userSpaceOnUse" x1="378.4091" y1="182.1778" x2="1.5791" y2="128.9178" gradientTransform="matrix(1.0039 0 0 -1.0039 0.1922 516.5593)">
	<stop  offset="0" style="stop-color:#FFF465"/>
	<stop  offset="1" style="stop-color:#FFE600"/>
</linearGradient>
<path style="fill:url(#SVGID_10_);" d="M488.256,367.047H274.535c-9.429,0-17.072-7.643-17.072-17.072v-32.987
	c0-9.429,7.643-17.072,17.072-17.072h213.721c9.429,0,17.072,7.643,17.072,17.072v32.987
	C505.327,359.404,497.684,367.047,488.256,367.047z"/>
<path style="fill:#3B4041;" d="M410.169,413.729c0-15.891-12.882-28.773-28.773-28.773s-28.773,12.882-28.773,28.773
	c0,10.64,5.78,19.924,14.365,24.902v33.633c0,7.957,6.45,14.408,14.408,14.408c7.958,0,14.408-6.45,14.408-14.408v-33.633
	C404.39,433.653,410.169,424.369,410.169,413.729z"/>
<g>
</g>
<g>
</g>
<g>
</g>
<g>
</g>
<g>
</g>
<g>
</g>
<g>
</g>
<g>
</g>
<g>
</g>
<g>
</g>
<g>
</g>
<g>
</g>
<g>
</g>
<g>
</g>
<g>
</g>
</svg>
