<svg height="511pt" viewBox="1 -60 511.99898 511" width="511pt" xmlns="http://www.w3.org/2000/svg"><path d="m415.972656 147.570312c-6.859375-82.246093-75.988281-147.070312-159.972656-147.070312s-153.117188 64.824219-159.976562 147.070312c-54.136719 7.253907-96.023438 53.75-96.023438 109.84375v22.21875c0 33.066407 26.898438 59.964844 59.960938 59.964844h10.929687c6.972656 29.785156 33.738281 52.039063 65.617187 52.039063 31.878907 0 58.644532-22.253907 65.617188-52.039063h107.75c6.972656 29.785156 33.734375 52.039063 65.613281 52.039063 31.882813 0 58.648438-22.253907 65.617188-52.039063h10.929687c33.0625 0 59.964844-26.898437 59.964844-59.964844v-22.21875c0-56.09375-41.886719-102.589843-96.027344-109.84375zm-242.78125 176.664063c0 20.226563-16.457031 36.683594-36.683594 36.683594-20.226562 0-36.679687-16.457031-36.679687-36.683594s16.453125-36.679687 36.679687-36.679687c20.226563 0 36.683594 16.453124 36.683594 36.679687zm238.980469 0c0 20.226563-16.453125 36.683594-36.679687 36.683594-20.226563 0-36.683594-16.457031-36.683594-36.683594s16.457031-36.679687 36.683594-36.679687c20.226562 0 36.679687 16.453124 36.679687 36.679687zm69.105469-44.597656c0 16.121093-13.117188 29.238281-29.238282 29.238281h-10.929687c-6.972656-29.785156-33.738281-52.042969-65.617187-52.042969-31.882813 0-58.644532 22.257813-65.617188 52.042969h-107.75c-6.972656-29.785156-33.734375-52.042969-65.617188-52.042969-31.878906 0-58.644531 22.257813-65.617187 52.042969h-10.929687c-16.121094 0-29.238282-13.117188-29.238282-29.238281v-22.222657c0-11.007812 2.234375-21.5 6.265625-31.058593h40.308594c8.484375 0 15.363281-6.875 15.363281-15.359375s-6.878906-15.359375-15.363281-15.359375h-17.410156c13.855469-11.445313 31.609375-18.328125 50.941406-18.328125 8.480469 0 15.359375-6.878906 15.359375-15.363282v-.910156c0-71.578125 58.234375-129.8125 129.8125-129.8125s129.8125 58.234375 129.8125 129.8125v.910156c0 8.484376 6.875 15.363282 15.359375 15.363282 19.332031 0 37.085937 6.882812 50.9375 18.328125h-17.441406c-8.484375 0-15.359375 6.875-15.359375 15.359375s6.875 15.359375 15.359375 15.359375h40.339843c4.035157 9.558593 6.269532 20.050781 6.269532 31.058593zm0 0"/><path d="m256 62.585938c-52.609375 0-95.40625 42.800781-95.40625 95.40625v3.953124c0 8.484376 6.878906 15.363282 15.359375 15.363282h160.089844c8.484375 0 15.363281-6.878906 15.363281-15.363282v-3.953124c0-52.605469-42.796875-95.40625-95.40625-95.40625zm-63.675781 84c5.402343-30.246094 31.902343-53.277344 63.675781-53.277344 31.777344 0 58.273438 23.03125 63.679688 53.277344zm0 0"/><path d="m274.945312 227.519531h-10.414062l5.007812-9.152343c4.070313-7.445313 1.335938-16.78125-6.109374-20.847657-7.441407-4.070312-16.777344-1.335937-20.847657 6.105469l-17.433593 31.886719c-2.601563 4.757812-2.5 10.539062.265624 15.207031 2.765626 4.664062 7.789063 7.523438 13.214844 7.523438h10.089844l-5.492188 9.789062c-4.148437 7.398438-1.515624 16.761719 5.886719 20.914062 2.375 1.332032 4.953125 1.964844 7.5 1.964844 5.375 0 10.59375-2.828125 13.410157-7.851562l18.320312-32.660156c2.667969-4.757813 2.613281-10.574219-.140625-15.277344-2.757813-4.710938-7.804687-7.601563-13.257813-7.601563zm0 0"/></svg>