<?xml version="1.0" encoding="iso-8859-1"?>
<!-- Generator: Adobe Illustrator 19.0.0, SVG Export Plug-In . SVG Version: 6.00 Build 0)  -->
<svg xmlns="http://www.w3.org/2000/svg" xmlns:xlink="http://www.w3.org/1999/xlink" version="1.1" id="Layer_1" x="0px" y="0px" viewBox="0 0 492.6 492.6" style="enable-background:new 0 0 492.6 492.6;" xml:space="preserve" width="512" height="512">
<g>
	<path style="fill:#54A5FF;" d="M391.55,31.88v428.84c0,17.61-14.28,31.88-31.89,31.88H132.94c-17.61,0-31.89-14.27-31.89-31.88   V31.88C101.05,14.27,115.33,0,132.94,0h226.72C377.27,0,391.55,14.27,391.55,31.88z"/>
	<path style="fill:#1E8AFF;" d="M391.55,31.88v428.84c0,17.61-14.28,31.88-31.89,31.88H246.3V0h113.36   C377.27,0,391.55,14.27,391.55,31.88z"/>
	<rect x="101.05" y="77.83" style="fill:#FFEAC3;" width="290.5" height="336.94"/>
	<rect x="246.3" y="77.83" style="fill:#FFD17E;" width="145.25" height="336.94"/>
	<path style="fill:#FFB739;" d="M391.55,208.81l-53.19,33.3l53.19,50.51v43.97l-81.1-77.01l-64.15,40.13l-145.25,90.87v-37.61   l145.25-90.88l40.27-25.19l-40.27-38.35L119.54,77.83h46.28l80.48,76.66l68.18,64.94c3.68-2.31,72.66-45.48,77.07-48.25V208.81z"/>
	<path style="fill:#FF9441;" d="M391.55,208.81l-53.19,33.3l53.19,50.51v43.97l-81.1-77.01l-64.15,40.13v-37.62l40.27-25.19   l-40.27-38.35v-44.06l68.18,64.94c3.68-2.31,72.66-45.48,77.07-48.25V208.81z"/>
	<path style="fill:#FF2B59;" d="M174.53,138.3c-27.95,0-50.61,22.66-50.61,50.61c0,22.91,34,73.29,46.27,90.71   c2.11,3.01,6.57,3.01,8.68,0c12.26-17.42,46.27-67.8,46.27-90.71C225.14,160.96,202.48,138.3,174.53,138.3z M190.47,194.37   c0,8.8-7.14,15.94-15.94,15.94c-8.81,0-15.94-7.14-15.94-15.94v-8.5c0-8.81,7.13-15.95,15.94-15.95c8.8,0,15.94,7.14,15.94,15.95   V194.37z"/>
	<path style="fill:#BFDCFF;" d="M280.84,452.86c0,8.8-7.13,15.94-15.94,15.94h-37.2c-8.81,0-15.94-7.14-15.94-15.94   c0-8.81,7.13-15.95,15.94-15.95h37.2C273.71,436.91,280.84,444.05,280.84,452.86z"/>
	<path style="fill:#89C1FF;" d="M280.84,452.86c0,8.8-7.13,15.94-15.94,15.94h-18.6v-31.89h18.6   C273.71,436.91,280.84,444.05,280.84,452.86z"/>
	<path style="fill:#BFDCFF;" d="M280.84,38.354c0,8.8-7.13,15.94-15.94,15.94h-37.2c-8.81,0-15.94-7.14-15.94-15.94   c0-8.81,7.13-15.95,15.94-15.95h37.2C273.71,22.404,280.84,29.544,280.84,38.354z"/>
	<path style="fill:#89C1FF;" d="M280.84,38.354c0,8.8-7.13,15.94-15.94,15.94h-18.6v-31.89h18.6   C273.71,22.404,280.84,29.544,280.84,38.354z"/>
</g>















</svg>
