<?xml version="1.0" encoding="iso-8859-1"?>
<!-- Generator: Adobe Illustrator 22.1.0, SVG Export Plug-In . SVG Version: 6.00 Build 0)  -->
<svg xmlns="http://www.w3.org/2000/svg" xmlns:xlink="http://www.w3.org/1999/xlink" version="1.1" id="Layer_3" x="0px" y="0px" viewBox="0 0 64 64" style="enable-background:new 0 0 64 64;" xml:space="preserve" width="512" height="512">
<g>
	<path d="M60,25h-7.051C52.443,14.335,43.965,5.746,33.346,5.068l2.361-2.361l-1.414-1.414l-4,4c-0.391,0.391-0.391,1.023,0,1.414   l4,4l1.414-1.414L33.49,7.075c9.45,0.739,16.961,8.41,17.46,17.925H40c-1.654,0-3,1.346-3,3v32c0,1.654,1.346,3,3,3h20   c1.654,0,3-1.346,3-3V28C63,26.346,61.654,25,60,25z M61,60c0,0.552-0.448,1-1,1H40c-0.552,0-1-0.448-1-1V28c0-0.551,0.448-1,1-1   h20c0.552,0,1,0.449,1,1V60z"/>
	<rect x="49" y="57" width="2" height="2"/>
	<path d="M58,29H42c-0.553,0-1,0.448-1,1v24c0,0.553,0.447,1,1,1h16c0.553,0,1-0.447,1-1V30C59,29.448,58.553,29,58,29z M57,53H43   V31h14V53z"/>
	<rect x="45" y="33" width="2" height="2"/>
	<rect x="45" y="41" width="2" height="2"/>
	<path d="M51,38v-5h-2v4h-4v2h5C50.553,39,51,38.553,51,38z"/>
	<rect x="53" y="33" width="2" height="2"/>
	<path d="M49,43h5c0.553,0,1-0.447,1-1v-5h-2v4h-4V43z"/>
	<rect x="13" y="33" width="2" height="2"/>
	<path d="M22,5H6C5.447,5,5,5.448,5,6v24c0,0.552,0.447,1,1,1h16c0.553,0,1-0.448,1-1V6C23,5.448,22.553,5,22,5z M21,29H7V7h14V29z"/>
	<rect x="9" y="9" width="2" height="2"/>
	<rect x="9" y="17" width="2" height="2"/>
	<path d="M15,14V9h-2v4H9v2h5C14.553,15,15,14.552,15,14z"/>
	<rect x="17" y="9" width="2" height="2"/>
	<path d="M13,19h5c0.553,0,1-0.448,1-1v-5h-2v4h-4V19z"/>
	<path d="M29.707,53.293l-1.414,1.414l2.218,2.218c-9.45-0.739-16.961-8.41-17.46-17.925H24c1.654,0,3-1.346,3-3V4   c0-1.654-1.346-3-3-3H4C2.346,1,1,2.346,1,4v32c0,1.654,1.346,3,3,3h7.051c0.506,10.664,8.984,19.254,19.603,19.932l-2.361,2.361   l1.414,1.414l4-4c0.391-0.391,0.391-1.023,0-1.414L29.707,53.293z M3,36V4c0-0.551,0.448-1,1-1h20c0.552,0,1,0.449,1,1v32   c0,0.552-0.448,1-1,1H4C3.448,37,3,36.552,3,36z"/>
</g>
</svg>
