<?xml version="1.0" encoding="iso-8859-1"?>
<!-- Generator: Adobe Illustrator 19.0.0, SVG Export Plug-In . SVG Version: 6.00 Build 0)  -->
<svg version="1.1" id="Capa_1" xmlns="http://www.w3.org/2000/svg" xmlns:xlink="http://www.w3.org/1999/xlink" x="0px" y="0px"
	 viewBox="0 0 512 512" style="enable-background:new 0 0 512 512;" xml:space="preserve">
<path style="fill:#CED6E0;" d="M209.067,286.933l18.133-60.8c-49.067,0-32,0-78.933,2.133l22.4,57.6h38.4V286.933z"/>
<g>
	<polygon style="fill:#66C6B9;" points="196.267,286.933 193.067,246.4 179.2,246.4 174.933,286.933 	"/>
	<polygon style="fill:#66C6B9;" points="193.067,246.4 199.467,240 185.6,226.133 172.8,240 179.2,246.4 	"/>
</g>
<g>
	<path style="fill:#FFD15C;" d="M151.467,167.467c2.133,13.867,11.733,12.8,9.6-1.067c-1.067-6.4-4.267-10.667-6.4-10.667
		C151.467,156.8,150.4,162.133,151.467,167.467z"/>
	
		<ellipse transform="matrix(0.1041 -0.9946 0.9946 0.1041 24.5644 362.1863)" style="fill:#FFD15C;" cx="213.319" cy="167.458" rx="10.667" ry="5.334"/>
</g>
<path style="fill:#F7B64C;" d="M164.267,204.8c0,0,0,8.533,10.667,14.933c10.667,6.4,10.667,7.467,10.667,7.467
	s0-1.067,10.667-7.467c10.667-6.4,10.667-14.933,10.667-14.933v-32c0,0,0-8.533-10.667-14.933
	c-10.667-6.4-10.667-7.467-10.667-7.467s0,1.067-10.667,7.467S164.267,172.8,164.267,172.8V204.8z"/>
<path style="fill:#FFD15C;" d="M213.333,178.133c-1.067,20.267-17.067,32-26.667,33.067c-32,0-35.2-72.533-24.533-85.333
	c3.2-4.267,18.133-3.2,24.533-3.2s20.267-1.067,24.533,3.2C214.4,130.133,213.333,166.4,213.333,178.133z"/>
<path style="fill:#344A5E;" d="M212.267,168.533c0,0-3.2-11.733-3.2-19.2c0-7.467,0-16-5.333-17.067c-5.333,0-25.6,5.333-37.333,3.2
	s-10.667,8.533-9.6,10.667c1.067,2.133,0,23.467,0,23.467h-1.067c0,0,0-6.4-3.2-11.733c-5.333-10.667-7.467-39.467,17.067-44.8
	c9.6-2.133,27.733-1.067,34.133,2.133c6.4,4.267,12.8,13.867,13.867,22.4c3.2,21.333-4.267,18.133-5.333,25.6
	C213.333,168.533,213.333,168.533,212.267,168.533"/>
<g>
	<path style="fill:#F3F3F3;" d="M164.267,204.8c0,0,0,8.533,10.667,14.933c10.667,6.4,10.667,7.467,10.667,7.467l-12.8,18.133
		L158.933,224C158.933,224,158.933,216.533,164.267,204.8z"/>
	<path style="fill:#F3F3F3;" d="M208,204.8c0,0,0,8.533-10.667,14.933c-10.667,6.4-10.667,7.467-10.667,7.467l12.8,18.133
		L213.333,224C212.267,224,213.333,216.533,208,204.8z"/>
</g>
<path style="fill:#415A6B;" d="M130.133,286.933c0-2.133,0-3.2,0-3.2l16-26.667c0,0-21.333-28.8-30.933-25.6
	c-9.6,3.2-10.667,27.733-16,44.8c-1.067,3.2-2.133,6.4-2.133,10.667H130.133L130.133,286.933z"/>
<path style="fill:#344A5E;" d="M130.133,286.933h40.533c-3.2-6.4-5.333-11.733-5.333-11.733s-13.867-55.467-11.733-56.533
	c0,0-35.2,11.733-38.4,12.8c0,0,14.933,36.267,16,52.267C130.133,284.8,130.133,285.867,130.133,286.933z"/>
<g>
	<path style="fill:#415A6B;" d="M164.267,286.933h12.8c-11.733-50.133-11.733-44.8-14.933-77.867c-4.267,6.4-9.6,9.6-9.6,9.6
		l-6.4,13.867l8.533,3.2l-8.533,7.467C146.133,246.4,156.8,270.933,164.267,286.933z"/>
	<path style="fill:#415A6B;" d="M241.067,286.933H275.2c-1.067-4.267-2.133-7.467-2.133-10.667c-4.267-17.067-5.333-41.6-16-44.8
		c-9.6-3.2-30.933,25.6-30.933,25.6l16,26.667C242.133,284.8,242.133,285.867,241.067,286.933z"/>
</g>
<path style="fill:#344A5E;" d="M201.6,286.933h40.533c0-2.133,0-3.2,0-3.2c1.067-17.067,16-52.267,16-52.267
	c-3.2-1.067-38.4-12.8-38.4-12.8C221.867,219.733,208,275.2,208,275.2S204.8,280.533,201.6,286.933z"/>
<path style="fill:#415A6B;" d="M206.933,286.933c7.467-16,18.133-40.533,19.2-43.733l-8.533-7.467l8.533-3.2l-6.4-13.867
	c0,0-5.333-3.2-9.6-9.6c-3.2,33.067-3.2,27.733-14.933,77.867H206.933L206.933,286.933z"/>
<path style="fill:#66C6B9;" d="M512,403.2v-23.467l-33.067-13.867c-2.133-6.4-4.267-11.733-7.467-18.133l13.867-33.067l-17.067-16
	L435.2,312.533c-5.333-3.2-11.733-5.333-18.133-7.467L403.2,272h-23.467l-13.867,33.067c-6.4,2.133-11.733,4.267-18.133,7.467
	l-32-13.867l-17.067,17.067l13.867,33.067c-3.2,5.333-5.333,11.733-7.467,18.133L272,380.8v23.467l33.067,13.867
	c2.133,6.4,4.267,11.733,7.467,18.133l-13.867,32l17.067,17.067l33.067-13.867c5.333,3.2,11.733,5.333,18.133,7.467L380.8,512
	h23.467l13.867-33.067c6.4-2.133,11.733-4.267,18.133-7.467l33.067,13.867l17.067-17.067L472.533,435.2
	c3.2-5.333,5.333-11.733,7.467-18.133L512,403.2z M366.933,416c-13.867-13.867-13.867-36.267,0-49.067
	c13.867-13.867,36.267-13.867,49.067,0C429.867,380.8,429.867,403.2,416,416C403.2,429.867,380.8,429.867,366.933,416z"/>
<path style="fill:#F3705A;" d="M330.667,172.8l40.533-39.467l-13.867-35.2L300.8,97.067c-6.4-8.533-13.867-16-21.333-22.4
	l1.067-56.533l-35.2-16l-41.6,39.467c-10.667-1.067-20.267-1.067-30.933-1.067L133.333,0l-35.2,13.867L97.067,70.4
	c-8.533,6.4-16,13.867-22.4,21.333h-57.6l-14.933,35.2l39.467,41.6c-1.067,10.667-1.067,20.267-1.067,30.933L0,237.867l13.867,35.2
	l56.533,1.067c6.4,8.533,13.867,16,21.333,22.4l-1.067,56.533l35.2,14.933l41.6-39.467c10.667,1.067,20.267,1.067,30.933,1.067
	l39.467,40.533l35.2-13.867l1.067-56.533c8.533-6.4,16-13.867,22.4-21.333l56.533,1.067l14.933-35.2l-39.467-41.6
	C330.667,194.133,331.733,183.467,330.667,172.8z M149.333,269.867C103.467,249.6,82.133,195.2,102.4,149.333
	s74.667-67.2,120.533-46.933s67.2,74.667,46.933,120.533C249.6,268.8,195.2,290.133,149.333,269.867z"/>
<path style="fill:#4ABAA5;" d="M350.933,350.933c-22.4,22.4-22.4,59.733,0,82.133c22.4,22.4,59.733,22.4,82.133,0
	c22.4-22.4,22.4-59.733,0-82.133C410.667,327.467,373.333,327.467,350.933,350.933z M416,416c-13.867,13.867-36.267,13.867-49.067,0
	c-13.867-13.867-13.867-36.267,0-49.067c13.867-13.867,36.267-13.867,49.067,0C429.867,380.8,429.867,403.2,416,416z"/>
<path style="fill:#F05540;" d="M290.133,231.467c25.6-57.6-1.067-124.8-58.667-150.4s-124.8,1.067-150.4,58.667
	s1.067,124.8,58.667,150.4C197.333,315.733,264.533,289.067,290.133,231.467z M101.333,149.333
	C121.6,103.467,176,82.133,221.867,102.4s67.2,74.667,46.933,120.533s-74.667,67.2-120.533,46.933
	C102.4,249.6,81.067,195.2,101.333,149.333z"/>
<g>
</g>
<g>
</g>
<g>
</g>
<g>
</g>
<g>
</g>
<g>
</g>
<g>
</g>
<g>
</g>
<g>
</g>
<g>
</g>
<g>
</g>
<g>
</g>
<g>
</g>
<g>
</g>
<g>
</g>
</svg>
