<svg height="512pt" viewBox="0 0 512.00001 512" width="512pt" xmlns="http://www.w3.org/2000/svg"><path d="m118.359375 254.6875-72.855469 49.726562c-25.132812 0-45.503906-70.101562-45.503906-95.234374 0-12.574219 5.09375-23.949219 13.332031-32.183594 8.234375-8.234375 19.605469-13.328125 32.171875-13.328125h296.351563c21.324219 0 38.597656 17.273437 38.597656 38.597656v19.355469" fill="#ce6209"/><path d="m275.308594 26.484375v228.203125h-225.734375v-228.203125c0-14.628906 11.855469-26.484375 26.492187-26.484375h172.75c14.628906 0 26.492188 11.855469 26.492188 26.484375zm0 0" fill="#3c3f4d"/><path d="m253.230469 59.703125v194.984375h-181.589844v-194.984375c0-7.375 5.984375-13.363281 13.363281-13.363281h154.867188c7.386718 0 13.359375 5.988281 13.359375 13.363281zm0 0" fill="#c4e2f2"/><path d="m253.234375 59.699219v241.878906c0 7.382813-5.984375 13.363281-13.359375 13.363281h-18.898438c7.378907 0 13.367188-5.980468 13.367188-13.363281v-241.878906c0-7.382813-5.988281-13.359375-13.367188-13.359375h18.898438c7.375 0 13.359375 5.976562 13.359375 13.359375zm0 0" fill="#83b2c6"/><path d="m400.765625 104.03125h-221.480469c-16.039062 0-29.042968 13-29.042968 29.042969v124.394531c0 16.039062 13.003906 29.042969 29.042968 29.042969h221.480469c17.378906 0 31.464844-14.089844 31.464844-31.46875v-119.546875c0-17.378906-14.085938-31.464844-31.464844-31.464844zm0 0" fill="#83b2c6"/><path d="m423.101562 104.03125h-221.480468c-16.039063 0-29.042969 13-29.042969 29.042969v124.394531c0 16.039062 13.003906 29.042969 29.042969 29.042969h221.480468c17.375 0 31.464844-14.089844 31.464844-31.46875v-119.546875c0-17.378906-14.089844-31.464844-31.464844-31.464844zm0 0" fill="#ff491f"/><path d="m172.578125 145.101562h281.988281v38.164063h-281.988281zm0 0" fill="#2d303b"/><path d="m106.074219 221.617188h380.8125v219.125h-380.8125zm0 0" fill="#83b2c6"/><path d="m131.1875 221.617188h380.8125v219.125h-380.8125zm0 0" fill="#32cc77"/><path d="m479.046875 367.289062v-72.214843c-22.367187 0-40.503906-18.136719-40.503906-40.503907h-233.902344c0 22.367188-18.132813 40.503907-40.5 40.503907v72.214843c22.367187 0 40.5 18.132813 40.5 40.5h233.902344c0-22.367187 18.132812-40.5 40.503906-40.5zm0 0" fill="#1fb25e"/><path d="m429.359375 339.027344h-25.109375c-4.335938 0-7.847656-3.511719-7.847656-7.847656 0-4.332032 3.511718-7.847657 7.847656-7.847657h25.109375c4.332031 0 7.847656 3.515625 7.847656 7.847657 0 4.335937-3.515625 7.847656-7.847656 7.847656zm0 0" fill="#32cc77"/><path d="m479.046875 262.410156c-6.902344 0-10.433594-8.710937-5.429687-13.503906 2.269531-2.171875 5.738281-2.78125 8.609374-1.503906 3.113282 1.386718 5.039063 4.726562 4.601563 8.128906-.496094 3.878906-3.851563 6.878906-7.78125 6.878906zm0 0" fill="#1fb25e"/><path d="m479.046875 415.636719c-7.039063 0-10.527344-9.042969-5.195313-13.722657 2.386719-2.089843 5.882813-2.550781 8.71875-1.128906 3.03125 1.523438 4.78125 4.945313 4.214844 8.300782-.632812 3.726562-3.949218 6.550781-7.738281 6.550781zm0 0" fill="#1fb25e"/><path d="m380.453125 293.285156v180.113282c0 21.324218-17.273437 38.597656-38.597656 38.597656h-296.351563c-25.132812 0-45.503906-20.371094-45.503906-45.511719v-257.304687c0 25.132812 20.371094 45.507812 45.503906 45.507812h296.351563c21.324219 0 38.597656 17.285156 38.597656 38.597656zm0 0" fill="#ff8e1d"/><path d="m49.574219 254.6875v257.308594h-4.070313c-25.132812 0-45.503906-20.371094-45.503906-45.511719v-257.304687c0 25.132812 20.371094 45.507812 45.503906 45.507812zm0 0" fill="#e2720e"/><path d="m336.515625 381.296875c0 13.839844-9.425781 25.476563-22.210937 28.835937-2.429688.636719-4.980469.984376-7.609376.984376-16.46875 0-29.820312-13.351563-29.820312-29.820313 0-16.472656 13.351562-29.820313 29.820312-29.820313 2.628907 0 5.179688.34375 7.609376.980469 12.785156 3.359375 22.210937 14.996094 22.210937 28.839844zm0 0" fill="#ffbe1d"/><path d="m336.515625 381.296875c0 13.839844-9.425781 25.476563-22.210937 28.835937-12.777344-3.371093-22.203126-15.003906-22.203126-28.835937 0-13.835937 9.425782-25.46875 22.203126-28.839844 12.785156 3.359375 22.210937 14.996094 22.210937 28.839844zm0 0" fill="#ffe14d"/></svg>